<svg xmlns="http://www.w3.org/2000/svg" id="Layer_1" data-name="Layer 1" viewBox="0 0 64 20">
  <defs>
    <style>
      .cls-1{fill:none}.cls-3{fill:#020202}
    </style>
  </defs>
  <path d="M4.15 2h12.5a.15.15 0 0 1 .13.22l-4.51 9a.17.17 0 0 0 0 .07v6.61a.15.15 0 0 1-.27.1l-3.38-1.87a.14.14 0 0 1-.08-.13v-4.76a.17.17 0 0 0 0-.07L4 2.22A.15.15 0 0 1 4.15 2z"/>
  <path d="M0 0h20v20H0z" class="cls-1"/>
  <g style="isolation:isolate">
    <path d="M24.45 9.92L24 8.53h-2.2l-.44 1.39H20l2.13-5.86h1.56l2.14 5.86zm-.74-2.43L23 5.36c-.05-.17-.09-.3-.11-.39q-.14.51-.78 2.52zM29.15 5a1.33 1.33 0 0 0-1.15.55A2.42 2.42 0 0 0 27.64 7c0 1.3.5 2 1.51 2a4.76 4.76 0 0 0 1.54-.31v1A4.38 4.38 0 0 1 29 10a2.58 2.58 0 0 1-2-.77A3.2 3.2 0 0 1 26.32 7a3.66 3.66 0 0 1 .34-1.6 2.43 2.43 0 0 1 1-1 2.93 2.93 0 0 1 1.49-.4 4.23 4.23 0 0 1 1.77.41l-.41 1a5.33 5.33 0 0 0-.68-.27 2.08 2.08 0 0 0-.68-.14zM34.53 9.92h-1.27V5.11h-1.64v-1h4.55v1h-1.64zM36.94 9.92V4.08h1.28v5.84zM43.56 4.08h1.29L42.8 9.92h-1.39l-2-5.84h1.29l1.14 3.48c.06.2.13.44.19.71s.11.47.13.57a9.36 9.36 0 0 1 .31-1.28zM50 9.92h-3.87V4.08H50v1h-2.45v1.3h2.28v1h-2.28V8.9H50zM21.36 16.92H20v-5.84h3.75v1h-2.39v1.5h2.22v1h-2.22zM24.69 16.92v-5.84h1.24v5.84zM27.5 16.92v-5.84h1.24v4.82h2.37v1zM34.07 16.92h-1.23v-4.81h-1.59v-1h4.41v1h-1.59zM40.16 16.92h-3.75v-5.84h3.75v1h-2.37v1.28H40v1h-2.2v1.54h2.37zM42.39 14.68v2.24h-1.24v-5.84h1.7a2.9 2.9 0 0 1 1.76.44 1.54 1.54 0 0 1 .57 1.31 1.54 1.54 0 0 1-.28.92 1.88 1.88 0 0 1-.8.63c.88 1.31 1.45 2.16 1.72 2.54h-1.38l-1.39-2.24zm0-1h.4a1.5 1.5 0 0 0 .86-.19.7.7 0 0 0 .28-.62.64.64 0 0 0-.28-.59 1.84 1.84 0 0 0-.89-.17h-.37zM50 15.3a1.49 1.49 0 0 1-.57 1.24 2.44 2.44 0 0 1-1.58.46 3.79 3.79 0 0 1-1.66-.35V15.5a7.7 7.7 0 0 0 1 .37 3.16 3.16 0 0 0 .75.11 1 1 0 0 0 .63-.16.57.57 0 0 0 .12-.77 1.17 1.17 0 0 0-.28-.25 6.34 6.34 0 0 0-.76-.4 3.79 3.79 0 0 1-.8-.48 2 2 0 0 1-.43-.54 1.68 1.68 0 0 1 .37-1.94 2.2 2.2 0 0 1 1.45-.44 3.58 3.58 0 0 1 .87.11 5.91 5.91 0 0 1 .86.3l-.4 1a7 7 0 0 0-.77-.26 2.54 2.54 0 0 0-.6-.08.77.77 0 0 0-.54.16.53.53 0 0 0-.19.43.55.55 0 0 0 .08.29.76.76 0 0 0 .24.23 7.18 7.18 0 0 0 .78.41 3.09 3.09 0 0 1 1.13.79 1.53 1.53 0 0 1 .3.92z" class="cls-3"/>
  </g>
  <path d="M20 0h44v20H20z" class="cls-1"/>
  <path d="M54.16 8h5.68a.16.16 0 0 1 .13.25l-3 3.69a.17.17 0 0 1-.26 0L54 8.24a.15.15 0 0 1 .16-.24z"/>
</svg>
