<svg xmlns="http://www.w3.org/2000/svg" id="Layer_1" data-name="Layer 1" viewBox="0 0 24 24">
  <defs>
    <style>
      .cls-2{fill:#FFF}
    </style>
  </defs>
  <path fill="none" d="M0 0h24v24H0z"/>
  <path d="M12.33 9.55l-2.54 4.73a.09.09 0 0 0 .07.12h1.7a.09.09 0 0 1 .08.09v2.92a.09.09 0 0 0 .16.04l2.41-4.71a.09.09 0 0 0-.07-.13h-1.6a.08.08 0 0 1-.08-.08c.02-.42.03-2.2.03-2.95a.08.08 0 0 0-.16-.03z" class="cls-2"/>
  <path d="M17.25 21.43H6.75a2.3 2.3 0 0 1-2.25-2.35v-.14L5.3 6.8a1.38 1.38 0 0 1 1.35-1.3h10.68a1.38 1.38 0 0 1 1.36 1.31l.8 12.13a2.3 2.3 0 0 1-2.1 2.48l-.14.01zm.07-15H6.66a.44.44 0 0 0-.42.43l-.8 12.24a1.36 1.36 0 0 0 1.33 1.4l10.54-.01a1.36 1.36 0 0 0 1.25-1.48l-.8-12.14a.44.44 0 0 0-.44-.43z" class="cls-2"/>
  <path d="M9 7.9a.7.7 0 1 1 .7-.7.7.7 0 0 1-.7.7zm0-1.2a.5.5 0 1 0 .5.5.5.5 0 0 0-.5-.5zm6 1.2a.7.7 0 1 1 .7-.7.7.7 0 0 1-.7.7zm0-1.2a.5.5 0 1 0 .5.5.5.5 0 0 0-.5-.5z" class="cls-2"/>
  <path d="M15 7.62a.5.5 0 0 1-.5-.5V5a2.5 2.5 0 0 0-5 0v2.12a.5.5 0 0 1-1 0V5a3.5 3.5 0 0 1 7 0v2.12a.5.5 0 0 1-.5.5z" class="cls-2"/>
</svg>
