<svg xmlns="http://www.w3.org/2000/svg" id="Layer_1" data-name="Layer 1" viewBox="0 0 56 20">
  <defs>
    <style>
      .cls-2{fill:#020202}.cls-3{fill:none}
    </style>
  </defs>
  <g style="isolation:isolate">
    <path d="M27.41 13l1.24-2.47H30l-2 3.66v2.31h-1.21v-2.29l-2-3.71h1.36zM20 10.5h1.84a3.54 3.54 0 0 1 1.83.36 1.28 1.28 0 0 1 .57 1.14 1.43 1.43 0 0 1-.25.88 1 1 0 0 1-.66.42 1.31 1.31 0 0 1 .81.47 1.53 1.53 0 0 1 .25.93 1.54 1.54 0 0 1-.59 1.3 2.49 2.49 0 0 1-1.59.46H20zm1.26 2.38H22a1.38 1.38 0 0 0 .74-.16.6.6 0 0 0 .23-.53.53.53 0 0 0-.25-.5 1.57 1.57 0 0 0-.79-.15h-.65zm0 1v1.56h.81a1.24 1.24 0 0 0 .77-.2.78.78 0 0 0 .25-.62c0-.5-.36-.74-1.06-.74zM38.83 9.5h-1.24V4.56H36V3.5h4.42v1.06h-1.59zM32.24 7.2v2.3H31v-6h1.71a2.83 2.83 0 0 1 1.76.5 1.6 1.6 0 0 1 .58 1.35 1.63 1.63 0 0 1-.29.94 2 2 0 0 1-.8.65c.88 1.34 1.45 2.22 1.72 2.61H34.3L32.9 7.2zm0-1h.4a1.47 1.47 0 0 0 .87-.2.71.71 0 0 0 .28-.63.65.65 0 0 0-.29-.61 1.68 1.68 0 0 0-.88-.18h-.38zM29.92 6.5a3.2 3.2 0 0 1-.71 2.22 2.53 2.53 0 0 1-2 .78 2.57 2.57 0 0 1-2-.78 3.21 3.21 0 0 1-.7-2.23 3.16 3.16 0 0 1 .7-2.22 2.61 2.61 0 0 1 2-.77 2.56 2.56 0 0 1 2 .77 3.26 3.26 0 0 1 .71 2.23zm-4.16 0a2.42 2.42 0 0 0 .37 1.5 1.25 1.25 0 0 0 1.08.49c1 0 1.44-.65 1.44-2s-.48-2-1.43-2a1.25 1.25 0 0 0-1.09.5 2.49 2.49 0 0 0-.37 1.51zM23.71 7.8a1.54 1.54 0 0 1-.56 1.25 2.37 2.37 0 0 1-1.54.45A3.6 3.6 0 0 1 20 9.15V8a5.93 5.93 0 0 0 1 .37 2.94 2.94 0 0 0 .73.11 1 1 0 0 0 .61-.16.52.52 0 0 0 .21-.46.53.53 0 0 0-.09-.3 1 1 0 0 0-.27-.26 7.83 7.83 0 0 0-.74-.39 3.2 3.2 0 0 1-.78-.49 1.71 1.71 0 0 1-.42-.54 1.58 1.58 0 0 1-.15-.71A1.53 1.53 0 0 1 20.58 4 2.11 2.11 0 0 1 22 3.51a3 3 0 0 1 .85.11 5.33 5.33 0 0 1 .84.3l-.39 1a5.06 5.06 0 0 0-.75-.27 2.44 2.44 0 0 0-.55-.11.74.74 0 0 0-.52.16.56.56 0 0 0-.19.43.51.51 0 0 0 .08.28 1 1 0 0 0 .23.24c.11.07.37.21.77.41a3.09 3.09 0 0 1 1.09.78 1.53 1.53 0 0 1 .25.96z" class="cls-2"/>
    <path d="M20 0h36v20H20z" class="cls-3"/>
  </g>
  <path d="M13.63 14.3V8.25a.15.15 0 0 0-.15-.15h-1.42a.15.15 0 0 0-.15.15v6.05a.15.15 0 0 1-.15.15H9.69a.16.16 0 0 0-.11.26L12.66 18a.14.14 0 0 0 .22 0L16 14.71a.16.16 0 0 0-.11-.26h-2.11a.15.15 0 0 1-.15-.15zM7.12 2.05L4 5.29a.16.16 0 0 0 .11.26h2.11a.15.15 0 0 1 .15.15v6.05a.15.15 0 0 0 .15.15h1.42a.15.15 0 0 0 .15-.15v-6a.15.15 0 0 1 .15-.15h2.07a.16.16 0 0 0 .11-.26L7.34 2.05a.14.14 0 0 0-.22 0z"/>
  <path d="M0 0h20v20H0z" class="cls-3"/>
  <path d="M44.16 8h5.68a.16.16 0 0 1 .13.25l-3 3.69a.17.17 0 0 1-.26 0L44 8.24a.15.15 0 0 1 .16-.24z"/>
</svg>
